#N canvas 17 461 475 379 10;
#X msg 133 37 devices;
#X floatatom 133 165 5 0 0 0 - - -;
#X msg 160 97 close;
#X msg 142 57 ports;
#X obj 133 142 - 48;
#X msg 151 76 open 2;
#X obj 133 119 comport 9600;
#X obj 118 296 dac~;
#X obj 93 252 osc~;
#X floatatom 77 227 5 0 0 0 - - -;
#X msg 77 207 440;
#X obj 77 186 loadbang;
#X obj 118 274 *~;
#X obj 133 208 line~;
#X msg 133 186 \$1 50;
#X msg 29 77 \; pd dsp \$1;
#X obj 29 57 tgl 15 0 empty empty empty 17 7 0 10 -262144 -1 -1 1 1
;
#X obj 29 36 loadbang;
#X obj 210 61 bng 15 250 50 0 empty empty empty 17 7 0 10 -4034 -1
-1;
#X obj 210 82 bng 15 250 50 0 empty empty empty 17 7 0 10 -258113 -1
-1;
#X text 228 62 Open serial port;
#X text 228 84 Close serial port;
#X obj 210 165 tgl 15 0 empty empty empty 17 7 0 10 -4160 -1 -1 0 1
;
#X text 228 167 Main switch;
#X connect 0 0 6 0;
#X connect 1 0 14 0;
#X connect 1 0 22 0;
#X connect 2 0 6 0;
#X connect 3 0 6 0;
#X connect 4 0 1 0;
#X connect 5 0 6 0;
#X connect 6 0 4 0;
#X connect 8 0 12 0;
#X connect 9 0 8 0;
#X connect 10 0 9 0;
#X connect 11 0 10 0;
#X connect 12 0 7 1;
#X connect 12 0 7 0;
#X connect 13 0 12 1;
#X connect 14 0 13 0;
#X connect 16 0 15 0;
#X connect 17 0 16 0;
#X connect 18 0 5 0;
#X connect 19 0 2 0;
